<svg width="61" height="61" viewBox="0 0 61 61" fill="none" xmlns="http://www.w3.org/2000/svg">
<rect x="2.0022" y="2.0022" width="56.0617" height="56.0617" rx="28.0308" stroke="#164852" stroke-width="4.00441"/>
<path d="M30.0909 15L18 20.3737V28.4343C18 35.8904 23.1588 42.8628 30.0909 44.5556C37.023 42.8628 42.1818 35.8904 42.1818 28.4343V20.3737L30.0909 15ZM30.0909 20.2394C30.888 20.2394 31.6672 20.4758 32.33 20.9186C32.9928 21.3615 33.5094 21.9909 33.8144 22.7274C34.1195 23.4638 34.1993 24.2742 34.0438 25.056C33.8883 25.8378 33.5044 26.5559 32.9408 27.1196C32.3771 27.6832 31.659 28.067 30.8772 28.2226C30.0954 28.3781 29.285 28.2983 28.5486 27.9932C27.8121 27.6882 27.1827 27.1716 26.7398 26.5088C26.297 25.846 26.0606 25.0668 26.0606 24.2697C26.0606 23.2008 26.4852 22.1757 27.2411 21.4198C27.9969 20.664 29.022 20.2394 30.0909 20.2394ZM30.0909 30.8525C32.7778 30.8525 38.1515 32.3169 38.1515 34.9903C37.2692 36.3205 36.0714 37.4116 34.6649 38.1664C33.2585 38.9212 31.6871 39.3162 30.0909 39.3162C28.4947 39.3162 26.9233 38.9212 25.5169 38.1664C24.1104 37.4116 22.9126 36.3205 22.0303 34.9903C22.0303 32.3169 27.404 30.8525 30.0909 30.8525Z" fill="#164852"/>
</svg>
