<svg width="61" height="61" viewBox="0 0 61 61" fill="none" xmlns="http://www.w3.org/2000/svg">
<rect x="2.0022" y="2.0022" width="56.0617" height="56.0617" rx="28.0308" stroke="#164852" stroke-width="4.00441"/>
<path fill-rule="evenodd" clip-rule="evenodd" d="M37.5018 30.0023C38.6655 30.0026 39.8133 29.7321 40.8544 29.2121C41.8955 28.6922 42.8013 27.9372 43.5002 27.0067C44.1991 26.0763 44.6718 24.9959 44.8811 23.8512C45.0903 22.7065 45.0303 21.5288 44.7058 20.4112C44.5044 19.7148 43.6409 19.5756 43.1288 20.0898L38.7853 24.4311C38.6042 24.6175 38.3592 24.7284 38.0996 24.7415C37.84 24.7546 37.5851 24.669 37.3861 24.5018C36.7137 23.9202 36.0842 23.2908 35.5026 22.6183C35.3354 22.4193 35.2498 22.1644 35.2629 21.9048C35.276 21.6452 35.3869 21.4002 35.5733 21.2191L39.9167 16.8735C40.431 16.3614 40.2917 15.4979 39.5953 15.2964C38.4664 14.9694 37.2765 14.912 36.1214 15.129C34.9664 15.346 33.8784 15.8313 32.9452 16.5458C32.012 17.2603 31.2597 18.184 30.7489 19.2425C30.238 20.301 29.983 21.4646 30.0042 22.6397C30.0428 24.7611 29.7192 27.1246 28.0457 28.4252L16.6676 37.2749C16.1841 37.6508 15.7862 38.1252 15.5001 38.6666C15.214 39.208 15.0464 39.8041 15.0083 40.4153C14.9703 41.0265 15.0627 41.6387 15.2794 42.2115C15.496 42.7842 15.8321 43.3043 16.2652 43.7372C16.6982 44.1702 17.2185 44.506 17.7913 44.7225C18.3641 44.939 18.9764 45.0312 19.5876 44.9929C20.1987 44.9546 20.7948 44.7868 21.3361 44.5005C21.8774 44.2143 22.3517 43.8161 22.7274 43.3325L31.577 31.9565C32.8777 30.2852 35.2412 29.9595 37.3625 29.998L37.5018 30.0023ZM19.2882 42.3233C19.7144 42.3233 20.1232 42.154 20.4246 41.8526C20.726 41.5512 20.8953 41.1424 20.8953 40.7162C20.8953 40.29 20.726 39.8812 20.4246 39.5798C20.1232 39.2784 19.7144 39.1091 19.2882 39.1091C18.862 39.1091 18.4532 39.2784 18.1518 39.5798C17.8504 39.8812 17.6811 40.29 17.6811 40.7162C17.6811 41.1424 17.8504 41.5512 18.1518 41.8526C18.4532 42.154 18.862 42.3233 19.2882 42.3233Z" fill="#164852"/>
</svg>
