<svg width="57" height="57" viewBox="0 0 57 57" fill="none" xmlns="http://www.w3.org/2000/svg">
<path d="M45.125 7.125C46.3848 7.125 47.593 7.62544 48.4838 8.51624C49.3746 9.40704 49.875 10.6152 49.875 11.875V45.125C49.875 46.3848 49.3746 47.593 48.4838 48.4838C47.593 49.3746 46.3848 49.875 45.125 49.875H11.875C10.6152 49.875 9.40704 49.3746 8.51624 48.4838C7.62544 47.593 7.125 46.3848 7.125 45.125V11.875C7.125 10.6152 7.62544 9.40704 8.51624 8.51624C9.40704 7.62544 10.6152 7.125 11.875 7.125H45.125ZM43.9375 43.9375V31.35C43.9375 29.2966 43.1218 27.3272 41.6698 25.8752C40.2178 24.4232 38.2484 23.6075 36.195 23.6075C34.1762 23.6075 31.825 24.8425 30.685 26.695V24.0588H24.0588V43.9375H30.685V32.2287C30.685 30.4 32.1575 28.9038 33.9863 28.9038C34.8681 28.9038 35.7138 29.2541 36.3374 29.8776C36.9609 30.5012 37.3113 31.3469 37.3113 32.2287V43.9375H43.9375ZM16.34 20.33C17.3982 20.33 18.4131 19.9096 19.1614 19.1614C19.9096 18.4131 20.33 17.3982 20.33 16.34C20.33 14.1313 18.5488 12.3263 16.34 12.3263C15.2755 12.3263 14.2546 12.7491 13.5018 13.5018C12.7491 14.2546 12.3263 15.2755 12.3263 16.34C12.3263 18.5488 14.1313 20.33 16.34 20.33ZM19.6413 43.9375V24.0588H13.0625V43.9375H19.6413Z" fill="white"/>
</svg>
