<svg width="43" height="45" viewBox="0 0 43 45" fill="none" xmlns="http://www.w3.org/2000/svg">
<path fill-rule="evenodd" clip-rule="evenodd" d="M18.9626 4.5H23.7656C23.9247 4.5 24.0773 4.56321 24.1898 4.67574C24.3023 4.78826 24.3656 4.94087 24.3656 5.1C24.3656 10.524 30.2396 13.917 34.9376 11.202C35.0747 11.1245 35.2368 11.104 35.3889 11.145C35.541 11.1859 35.6709 11.2851 35.7506 11.421L38.1566 15.585C38.235 15.7224 38.256 15.8853 38.215 16.0381C38.174 16.1909 38.0743 16.3213 37.9376 16.401C33.2396 19.113 33.2396 25.893 37.9376 28.608C38.0735 28.6876 38.1726 28.8175 38.2136 28.9696C38.2546 29.1217 38.2341 29.2839 38.1566 29.421L35.7506 33.585C35.6709 33.7209 35.541 33.8201 35.3889 33.8611C35.2368 33.902 35.0747 33.8815 34.9376 33.804C30.2396 31.089 24.3656 34.479 24.3656 39.9C24.3656 40.0586 24.3028 40.2108 24.1909 40.3232C24.079 40.4356 23.9272 40.4992 23.7686 40.5H18.9656C18.8064 40.5 18.6538 40.4368 18.5413 40.3243C18.4288 40.2117 18.3656 40.0591 18.3656 39.9C18.3656 34.476 12.4916 31.086 7.79356 33.798C7.65615 33.8765 7.4933 33.8975 7.34047 33.8565C7.18764 33.8155 7.05721 33.7157 6.97756 33.579L4.57756 29.415C4.49977 29.2782 4.47882 29.1164 4.51922 28.9643C4.55962 28.8122 4.65814 28.6821 4.79356 28.602C9.49156 25.887 9.49156 19.107 4.79356 16.392C4.65843 16.3124 4.55985 16.183 4.51892 16.0316C4.47799 15.8803 4.49796 15.7189 4.57456 15.582L6.97756 11.415C7.0577 11.2788 7.18836 11.1797 7.34115 11.1392C7.49394 11.0988 7.65651 11.1203 7.79356 11.199C12.4916 13.914 18.3656 10.521 18.3656 5.097C18.3656 4.767 18.6326 4.5 18.9626 4.5ZM13.8656 5.1C13.8656 2.28 16.1456 0 18.9626 0H23.7656C26.5856 0 28.8656 2.28 28.8656 5.1C28.8664 5.54689 28.9848 5.9857 29.2087 6.37247C29.4326 6.75923 29.7542 7.08036 30.1413 7.30368C30.5284 7.52701 30.9673 7.64468 31.4142 7.64491C31.8611 7.64514 32.3002 7.52792 32.6876 7.305C33.8583 6.63077 35.2486 6.44858 36.5535 6.79843C37.8584 7.14827 38.9712 8.00156 39.6476 9.171L42.0536 13.335C43.4606 15.774 42.6236 18.888 40.1876 20.295C39.8001 20.5189 39.4783 20.8407 39.2546 21.2283C39.0309 21.6159 38.9132 22.0555 38.9132 22.503C38.9132 22.9505 39.0309 23.3901 39.2546 23.7777C39.4783 24.1653 39.8001 24.4871 40.1876 24.711C41.357 25.3874 42.2103 26.5002 42.5601 27.805C42.91 29.1099 42.7278 30.5003 42.0536 31.671L39.6476 35.835C38.9712 37.0044 37.8584 37.8577 36.5535 38.2076C35.2486 38.5574 33.8583 38.3752 32.6876 37.701C32.3002 37.4781 31.8611 37.3609 31.4142 37.3611C30.9673 37.3613 30.5284 37.479 30.1413 37.7023C29.7542 37.9256 29.4326 38.2468 29.2087 38.6335C28.9848 39.0203 28.8664 39.4591 28.8656 39.906C28.8656 42.723 26.5856 45.006 23.7686 45.006H18.9656C17.6135 45.0052 16.317 44.4675 15.3612 43.5112C14.4055 42.5548 13.8686 41.2581 13.8686 39.906C13.8677 39.4591 13.7493 39.0203 13.5254 38.6335C13.3016 38.2468 12.9799 37.9256 12.5929 37.7023C12.2058 37.479 11.7668 37.3613 11.3199 37.3611C10.873 37.3609 10.4339 37.4781 10.0466 37.701C8.87586 38.3752 7.48548 38.5574 6.1806 38.2076C4.87572 37.8577 3.76295 37.0044 3.08656 35.835L0.680555 31.671C0.00632542 30.5003 -0.175862 29.1099 0.173981 27.805C0.523825 26.5002 1.37711 25.3874 2.54656 24.711C2.93333 24.4869 3.25442 24.1652 3.47763 23.7779C3.70084 23.3906 3.81833 22.9515 3.81833 22.5045C3.81833 22.0575 3.70084 21.6184 3.47763 21.2311C3.25442 20.8439 2.93333 20.5221 2.54656 20.298C1.37711 19.6216 0.523825 18.5088 0.173981 17.204C-0.175862 15.8991 0.00632542 14.5087 0.680555 13.338L3.08356 9.171C3.75995 8.00156 4.87272 7.14827 6.1776 6.79843C7.48248 6.44858 8.87286 6.63077 10.0436 7.305C10.4309 7.52792 10.87 7.64514 11.3169 7.64491C11.7638 7.64468 12.2028 7.52701 12.5899 7.30368C12.9769 7.08036 13.2986 6.75923 13.5224 6.37247C13.7463 5.9857 13.8647 5.54689 13.8656 5.1ZM25.8656 22.5C25.8656 23.6935 25.3915 24.8381 24.5475 25.682C23.7036 26.5259 22.559 27 21.3656 27C20.1721 27 19.0275 26.5259 18.1836 25.682C17.3397 24.8381 16.8656 23.6935 16.8656 22.5C16.8656 21.3065 17.3397 20.1619 18.1836 19.318C19.0275 18.4741 20.1721 18 21.3656 18C22.559 18 23.7036 18.4741 24.5475 19.318C25.3915 20.1619 25.8656 21.3065 25.8656 22.5ZM30.3656 22.5C30.3656 24.887 29.4173 27.1761 27.7295 28.864C26.0417 30.5518 23.7525 31.5 21.3656 31.5C18.9786 31.5 16.6894 30.5518 15.0016 28.864C13.3138 27.1761 12.3656 24.887 12.3656 22.5C12.3656 20.1131 13.3138 17.8239 15.0016 16.136C16.6894 14.4482 18.9786 13.5 21.3656 13.5C23.7525 13.5 26.0417 14.4482 27.7295 16.136C29.4173 17.8239 30.3656 20.1131 30.3656 22.5Z" fill="#0A3D62"/>
</svg>
